<?xml version="1.0" encoding="utf-8"?>
<!-- Generator: Adobe Illustrator 21.1.0, SVG Export Plug-In . SVG Version: 6.00 Build 0)  -->
<svg version="1.1" id="Layer_1" xmlns="http://www.w3.org/2000/svg" xmlns:xlink="http://www.w3.org/1999/xlink" x="0px" y="0px"
	 viewBox="0 0 207 23.2" style="enable-background:new 0 0 207 23.2;" xml:space="preserve">
<style type="text/css">
	.st0{fill:none;}
	.st1{font-family:'Roboto-Regular';}
	.st2{font-size:10px;}
	.st3{fill:#1072B9;}
	.st4{fill:#FFFFFF;}
	.st5{fill:#FCB813;}
	.st6{fill-rule:evenodd;clip-rule:evenodd;fill:url(#SVGID_1_);}
	.st7{fill-rule:evenodd;clip-rule:evenodd;fill:#FFFFFF;}
	.st8{fill:#1E5FBB;}
</style>
<rect x="2.7" y="9.7" class="st0" width="100.3" height="8.2"/>
<text transform="matrix(1 0 0 1 2.6704 17.2054)" class="st1 st2">A collaboration of</text>
<g>
	<polyline class="st3" points="111.7,3.4 111.7,17.7 86.3,17.7 86.3,3.4 	"/>
	<path class="st4" d="M87.1,11.4c0,0.8,0.3,1.5,0.9,2c0.4,0.3,1,0.6,1.6,0.8l0.5,0.2c0.7,0.3,0.8,0.7,0.8,0.9c0,0.4-0.4,0.7-0.9,0.7
		c-0.6,0-1-0.3-1.5-1.1l-0.1-0.1L86.8,16l0.1,0.1c0.7,1.2,1.8,1.8,3.2,1.8c1.8,0,3.1-1.1,3.1-2.7c0-0.8-0.3-1.6-0.9-2.1
		c-0.4-0.3-0.9-0.5-1.5-0.8l-0.6-0.3c-0.6-0.3-0.9-0.5-0.9-0.9c0-0.4,0.3-0.6,0.8-0.6c0.5,0,1,0.3,1.4,0.9l0.1,0.1l1.6-1.1l-0.1-0.1
		c-0.6-1-1.6-1.6-2.9-1.6C88.3,8.8,87.1,9.8,87.1,11.4"/>
	<path class="st4" d="M95.9,14.3c0.1-0.3,0.5-2.1,0.7-2.9c0.2,0.8,0.6,2.7,0.7,2.9C97,14.3,96.1,14.3,95.9,14.3 M97.8,9h-2.4
		l-2.5,8.7H95c0,0,0.4-1.5,0.4-1.7c0.2,0,2.1,0,2.3,0c0.1,0.2,0.4,1.7,0.4,1.7h2.1L97.8,9L97.8,9z"/>
	<path class="st4" d="M103,12.8c0,0-0.2,0-0.4,0c0-0.3,0-1.8,0-2.1c0.2,0,0.4,0,0.4,0c1.1,0,1.5,0.2,1.5,1.1
		C104.4,12.6,104.1,12.8,103,12.8 M105.4,9.4C104.7,9,103.8,9,102.7,9h-2.3v8.7h2.2c0,0,0-2.8,0-3.1c0,0,0.1,0,0.1,0
		c1.2,0,2-0.1,2.7-0.4c0.8-0.5,1.3-1.3,1.3-2.4C106.6,10.7,106.2,9.8,105.4,9.4L105.4,9.4z"/>
	<path class="st5" d="M108.3,11.4h0.8v6.3h-0.8V11.4L108.3,11.4z M108.3,9.1h0.8v1h-0.8V9.1L108.3,9.1z"/>
	<path class="st5" d="M110.8,11.7l0.9-0.4v1.4h0.1c0.7-0.9,1.4-1.4,2.2-1.4c1,0,1.5,0.7,1.5,2v4.4h-0.9v-4.3c0-1-0.2-1.4-0.9-1.4
		c-0.6,0-1.3,0.5-2.1,1.5v4.2h-0.9V11.7"/>
	<path class="st5" d="M116.7,16.4c0.6,0.5,1.2,0.7,1.7,0.7c0.8,0,1.3-0.5,1.3-1.1c0-0.5-0.2-0.7-0.8-0.9l-1.2-0.5
		c-0.8-0.3-1.2-0.9-1.2-1.6c0-0.9,0.8-1.6,2-1.6c0.6,0,1.1,0.2,1.7,0.5l-0.3,0.7c-0.6-0.3-1-0.5-1.5-0.5c-0.7,0-1.1,0.4-1.1,0.9
		c0,0.4,0.3,0.8,0.8,1l0.9,0.4c1,0.4,1.4,0.9,1.4,1.7c0,1.1-0.8,1.9-2.1,1.9c-0.8,0-1.5-0.3-2.1-0.7L116.7,16.4"/>
	<path class="st5" d="M121.9,11.4h0.8v6.3h-0.8V11.4L121.9,11.4z M121.9,9.1h0.8v1h-0.8V9.1L121.9,9.1z"/>
	<path class="st5" d="M128.9,17.4V8.5l-0.8,0.4v3.8h-0.1c-0.6-0.9-1.2-1.4-1.9-1.4c-1.3,0-2.1,1.2-2.1,3.3c0,2.1,0.8,3.3,2.1,3.3
		c0.7,0,1.4-0.5,1.9-1.4h0.1v1.2L128.9,17.4 M124.8,14.6c0-1.6,0.6-2.5,1.5-2.5c0.4,0,0.8,0.2,1.1,0.7c0.4,0.5,0.6,1.2,0.6,1.8
		c0,0.6-0.2,1.3-0.6,1.8c-0.3,0.4-0.8,0.7-1.1,0.7C125.4,17.1,124.8,16.2,124.8,14.6L124.8,14.6z"/>
	<path class="st5" d="M134.3,16.9l-0.6-0.5c-0.5,0.5-0.9,0.7-1.4,0.7c-1.1,0-1.6-0.8-1.6-2.3c0-0.1,0-0.2,0-0.3h3.8c0,0,0-0.1,0-0.1
		c0-2-0.9-3.1-2.3-3.1c-1.4,0-2.4,1.2-2.4,3.3c0,2.2,0.9,3.3,2.4,3.3C133.1,17.9,133.8,17.5,134.3,16.9 M130.7,13.8
		c0.1-1.2,0.6-1.8,1.5-1.8c0.9,0,1.4,0.6,1.4,1.8H130.7L130.7,13.8z"/>
	<path class="st5" d="M135.5,11.6l0.9-0.4v2.4h0.1c1-1.4,1.8-2.3,2.5-2.4v1.6c0,0-0.1,0-0.1,0c-1,0-1.8,0.5-2.6,1.6v3.3h-0.9V11.6"
		/>
</g>
<rect x="145.8" y="9.7" class="st0" width="17" height="8"/>
<text transform="matrix(1 0 0 1 145.8193 17.1971)" class="st1 st2">and</text>
<g>
	<g>
		<g>
			<linearGradient id="SVGID_1_" gradientUnits="userSpaceOnUse" x1="185.0454" y1="3.7362" x2="185.0454" y2="20.7624">
				<stop  offset="0" style="stop-color:#00B8F1"/>
				<stop  offset="1.644576e-02" style="stop-color:#01B6F0"/>
				<stop  offset="0.3079" style="stop-color:#0D90D9"/>
				<stop  offset="0.5782" style="stop-color:#1775C8"/>
				<stop  offset="0.8173" style="stop-color:#1C65BF"/>
				<stop  offset="1" style="stop-color:#1E5FBB"/>
			</linearGradient>
			<polyline class="st6" points="167.8,20.8 185.2,20.8 202.3,3.7 167.8,3.7 167.8,20.8 			"/>
		</g>
		<path class="st7" d="M188.3,6.9l-3.4,0V15l-3-8.1H179l-2.5,6.7c-0.3-1.7-2-2.3-3.4-2.7c-0.9-0.3-1.9-0.7-1.9-1.2
			c0-0.4,0.5-0.8,1.5-0.7c0.7,0,1.3,0.1,2.5,0.7l1.2-2c-1.1-0.6-2.6-0.9-3.8-0.9h0c-1.4,0-2.6,0.5-3.4,1.2c-0.5,0.5-0.8,1.2-0.8,2
			c0,1,0.4,1.8,1.2,2.4c0.7,0.5,1.5,0.8,2.3,1.1c0.9,0.3,1.7,0.5,1.7,1.1c0,0.2-0.1,0.4-0.2,0.5c-0.2,0.2-0.6,0.3-1.1,0.3
			c-1,0-1.7-0.1-2.8-0.8l-1,2.1c1.1,0.6,2.5,1,3.8,1l0.2,0c1.2,0,2.1-0.4,2.9-1c0,0,0.1-0.1,0.1-0.1l-0.3,0.9h3.1l0.5-1.6
			c0.5,0.2,1.2,0.3,1.8,0.3c0.6,0,1.2-0.1,1.8-0.3l0.5,1.6h5v-3.3h1.1c2.6,0,4.2-1.3,4.2-3.6C193,8.1,191.5,6.9,188.3,6.9z
			 M180.4,13.8c-0.4,0-0.8-0.1-1.1-0.2l1.1-3.4h0l1.1,3.4C181.2,13.8,180.8,13.8,180.4,13.8z M188.5,11.9h-0.7V9.2h0.7
			c1,0,1.8,0.3,1.8,1.3C190.2,11.6,189.5,11.9,188.5,11.9"/>
	</g>
	<path class="st8" d="M189.4,19.6c0-0.5,0.4-0.9,0.9-0.9c0.5,0,0.9,0.4,0.9,0.9c0,0.5-0.4,0.9-0.9,0.9
		C189.7,20.6,189.4,20.2,189.4,19.6z M190.3,20.7c0.6,0,1.1-0.5,1.1-1.1c0-0.6-0.5-1.1-1.1-1.1c-0.6,0-1.1,0.5-1.1,1.1
		C189.1,20.3,189.6,20.7,190.3,20.7z M190,19.7h0.2l0.3,0.5h0.2l-0.4-0.6c0.2,0,0.3-0.1,0.3-0.4c0-0.2-0.1-0.4-0.4-0.4h-0.5v1.3h0.2
		V19.7z M190,19.6v-0.4h0.3c0.1,0,0.3,0,0.3,0.2c0,0.2-0.1,0.2-0.3,0.2H190z"/>
</g>
</svg>
