<?xml version="1.0" encoding="utf-8"?>
<!-- Generator: Adobe Illustrator 21.1.0, SVG Export Plug-In . SVG Version: 6.00 Build 0)  -->
<svg version="1.1" id="Layer_1" xmlns="http://www.w3.org/2000/svg" xmlns:xlink="http://www.w3.org/1999/xlink" x="0px" y="0px"
	 viewBox="0 0 182.9 21.1" style="enable-background:new 0 0 182.9 21.1;" xml:space="preserve">
<style type="text/css">
	.st0{fill:none;}
	.st1{font-family:'Roboto-Regular';}
	.st2{font-size:10px;}
	.st3{fill:#1072B9;}
	.st4{fill:#FFFFFF;}
	.st5{fill:#FCB813;}
</style>
<rect x="2.1" y="9.1" class="st0" width="142" height="8"/>
<text transform="matrix(1 0 0 1 2.0868 16.6247)" class="st1 st2">Produced independently by </text>
<g>
	<polyline class="st3" points="153.1,2.8 153.1,17.1 127.7,17.1 127.7,2.8 	"/>
	<path class="st4" d="M128.5,10.8c0,0.8,0.3,1.5,0.9,2c0.4,0.3,1,0.6,1.6,0.8l0.5,0.2c0.7,0.3,0.8,0.7,0.8,0.9
		c0,0.4-0.4,0.7-0.9,0.7c-0.6,0-1-0.3-1.5-1.1l-0.1-0.1l-1.7,1.2l0.1,0.1c0.7,1.2,1.8,1.8,3.2,1.8c1.8,0,3.1-1.1,3.1-2.7
		c0-0.8-0.3-1.6-0.9-2.1c-0.4-0.3-0.9-0.5-1.5-0.8l-0.6-0.3c-0.6-0.3-0.9-0.5-0.9-0.9c0-0.4,0.3-0.6,0.8-0.6c0.5,0,1,0.3,1.4,0.9
		l0.1,0.1l1.6-1.1l-0.1-0.1c-0.6-1-1.6-1.6-2.9-1.6C129.7,8.2,128.5,9.2,128.5,10.8"/>
	<path class="st4" d="M137.3,13.7c0.1-0.3,0.5-2.1,0.7-2.9c0.2,0.8,0.6,2.7,0.7,2.9C138.4,13.7,137.5,13.7,137.3,13.7 M139.2,8.4
		h-2.4l-2.5,8.7h2.1c0,0,0.4-1.5,0.4-1.7c0.2,0,2.1,0,2.3,0c0.1,0.2,0.4,1.7,0.4,1.7h2.1L139.2,8.4L139.2,8.4z"/>
	<path class="st4" d="M144.4,12.3c0,0-0.2,0-0.4,0c0-0.3,0-1.8,0-2.1c0.2,0,0.4,0,0.4,0c1.1,0,1.5,0.2,1.5,1.1
		C145.8,12,145.5,12.3,144.4,12.3 M146.8,8.8c-0.7-0.4-1.6-0.4-2.7-0.4h-2.3v8.7h2.2c0,0,0-2.8,0-3.1c0,0,0.1,0,0.1,0
		c1.2,0,2-0.1,2.7-0.4c0.8-0.5,1.3-1.3,1.3-2.4C148,10.1,147.6,9.3,146.8,8.8L146.8,8.8z"/>
	<path class="st5" d="M149.7,10.8h0.8v6.3h-0.8V10.8L149.7,10.8z M149.7,8.5h0.8v1h-0.8V8.5L149.7,8.5z"/>
	<path class="st5" d="M152.2,11.1l0.9-0.4v1.4h0.1c0.7-0.9,1.4-1.4,2.2-1.4c1,0,1.5,0.7,1.5,2v4.4H156v-4.3c0-1-0.2-1.4-0.9-1.4
		c-0.6,0-1.3,0.5-2.1,1.5v4.2h-0.9V11.1"/>
	<path class="st5" d="M158.1,15.8c0.6,0.5,1.2,0.7,1.7,0.7c0.8,0,1.3-0.5,1.3-1.1c0-0.5-0.2-0.7-0.8-0.9l-1.2-0.5
		c-0.8-0.3-1.2-0.9-1.2-1.6c0-0.9,0.8-1.6,2-1.6c0.6,0,1.1,0.2,1.7,0.5l-0.3,0.7c-0.6-0.3-1-0.5-1.5-0.5c-0.7,0-1.1,0.4-1.1,0.9
		c0,0.4,0.3,0.8,0.8,1l0.9,0.4c1,0.4,1.4,0.9,1.4,1.7c0,1.1-0.8,1.9-2.1,1.9c-0.8,0-1.5-0.3-2.1-0.7L158.1,15.8"/>
	<path class="st5" d="M163.3,10.8h0.8v6.3h-0.8V10.8L163.3,10.8z M163.3,8.5h0.8v1h-0.8V8.5L163.3,8.5z"/>
	<path class="st5" d="M170.3,16.8V7.9l-0.8,0.4V12h-0.1c-0.6-0.9-1.2-1.4-1.9-1.4c-1.3,0-2.1,1.2-2.1,3.3c0,2.1,0.8,3.3,2.1,3.3
		c0.7,0,1.4-0.5,1.9-1.4h0.1v1.2L170.3,16.8 M166.2,14c0-1.6,0.6-2.5,1.5-2.5c0.4,0,0.8,0.2,1.1,0.7c0.4,0.5,0.6,1.2,0.6,1.8
		c0,0.6-0.2,1.3-0.6,1.8c-0.3,0.4-0.8,0.7-1.1,0.7C166.8,16.5,166.2,15.6,166.2,14L166.2,14z"/>
	<path class="st5" d="M175.7,16.3l-0.6-0.5c-0.5,0.5-0.9,0.7-1.4,0.7c-1.1,0-1.6-0.8-1.6-2.3c0-0.1,0-0.2,0-0.3h3.8c0,0,0-0.1,0-0.1
		c0-2-0.9-3.1-2.3-3.1c-1.4,0-2.4,1.2-2.4,3.3c0,2.2,0.9,3.3,2.4,3.3C174.5,17.3,175.2,16.9,175.7,16.3 M172.2,13.2
		c0.1-1.2,0.6-1.8,1.5-1.8c0.9,0,1.4,0.6,1.4,1.8H172.2L172.2,13.2z"/>
	<path class="st5" d="M177,11.1l0.9-0.4v2.4h0.1c1-1.4,1.8-2.3,2.5-2.4v1.6c0,0-0.1,0-0.1,0c-1,0-1.8,0.5-2.6,1.6v3.3H177V11.1"/>
</g>
</svg>
